<mxfile host="app.diagrams.net" modified="2022-11-29T02:47:19.866Z" agent="5.0 (Windows NT 10.0; Win64; x64) AppleWebKit/537.36 (KHTML, like Gecko) Chrome/107.0.0.0 Safari/537.36" version="20.6.0" etag="7d5keUv-CCAnrXJyAJG-" type="github">
  <diagram id="Tw3jteXNpflu8g_Vp0iM" name="Page-1">
    <mxGraphModel dx="1038" dy="655" grid="1" gridSize="10" guides="1" tooltips="1" connect="1" arrows="1" fold="1" page="1" pageScale="1" pageWidth="1700" pageHeight="1100" math="0" shadow="0">
      <root>
        <mxCell id="0" />
        <mxCell id="1" parent="0" />
        <mxCell id="FvqiMAoV1foXNwXdc4K4-1" value="" style="shape=image;verticalLabelPosition=bottom;labelBackgroundColor=default;verticalAlign=top;aspect=fixed;imageAspect=0;image=https://img.freepik.com/free-vector/spreadsheet-laptop-desktop-icons_603843-349.jpg;clipPath=inset(26.67% 1.33% 4.58% 3%);" vertex="1" parent="1">
          <mxGeometry x="170" y="170" width="347.88" height="200" as="geometry" />
        </mxCell>
        <mxCell id="FvqiMAoV1foXNwXdc4K4-2" value="" style="shape=image;verticalLabelPosition=bottom;labelBackgroundColor=default;verticalAlign=top;aspect=fixed;imageAspect=0;image=https://uphelp.org/wp-content/uploads/2020/09/Screen-Shot-2021-06-24-at-3.10.35-PM.png;" vertex="1" parent="1">
          <mxGeometry x="560" y="170" width="360" height="202.15" as="geometry" />
        </mxCell>
        <mxCell id="FvqiMAoV1foXNwXdc4K4-3" value="" style="shape=image;verticalLabelPosition=bottom;labelBackgroundColor=default;verticalAlign=top;aspect=fixed;imageAspect=0;image=https://researchforevidence.fhi360.org/wp-content/uploads/2017/08/carano-paper-1200x800.png;" vertex="1" parent="1">
          <mxGeometry x="387.88" y="509.99999999999994" width="310" height="206.86" as="geometry" />
        </mxCell>
        <mxCell id="FvqiMAoV1foXNwXdc4K4-4" value="" style="html=1;shadow=0;dashed=0;align=center;verticalAlign=middle;shape=mxgraph.arrows2.arrow;dy=0.6;dx=40;direction=north;notch=0;fillColor=#363636;" vertex="1" parent="1">
          <mxGeometry x="517.88" y="410" width="50" height="70" as="geometry" />
        </mxCell>
      </root>
    </mxGraphModel>
  </diagram>
</mxfile>
